# xmcd
#
# Track frame offsets:
#	150
#	18263
#	39702
#	57154
#	73382
#	91896
#	108091
#	132722
#	147020
#	162391
#	184354
#
# Disc length: 2760 seconds
#
# Revision: 1
# Processed by: cddbd v1.5.1PL0 Copyright (c) Steve Scherf et al.
# Submitted via: audiograbber 1.83.01
#
DISCID=9e0ac60b
DTITLE=Roxy Perry - Back In Bluesville
DYEAR=2005
DGENRE=Blues
TTITLE0=Back In Bluesville
TTITLE1=Whole Dog
TTITLE2=Midnight Train
TTITLE3=Crooked Path
TTITLE4=Nothing Like You
TTITLE5=Two Left Feet
TTITLE6=Stone In The Sea
TTITLE7=Get It
TTITLE8=Forgive And Forget
TTITLE9=Do It
TTITLE10=House Of The Rising Sun
EXTD=
EXTT0=
EXTT1=
EXTT2=
EXTT3=
EXTT4=
EXTT5=
EXTT6=
EXTT7=
EXTT8=
EXTT9=
EXTT10=
PLAYORDER=
